<svg xmlns="http://www.w3.org/2000/svg" version="1.1" xmlns:xlink="http://www.w3.org/1999/xlink" width="512" height="512" x="0" y="0" viewBox="0 0 512 512" style="enable-background:new 0 0 512 512" xml:space="preserve" class=""><g><path fill="#ffb933" fill-rule="evenodd" d="M256 511.44c140.724 0 255.5-114.655 255.5-255.379S396.724.56 256 .56.5 115.336.5 256.06 115.276 511.44 256 511.44z" clip-rule="evenodd" opacity="1" data-original="#ffb933" class=""></path><path fill="#4a9c71" d="M223.315 167.803h-9.6l20.628-28.381 20.628 28.381h-9.615a5.151 5.151 0 0 0-5.15 5.15v44.043h-11.741v-44.043c0-2.84-2.31-5.15-5.15-5.15zm107.309-54.49v44.316h11.741v-44.316a5.147 5.147 0 0 1 5.15-5.15h9.615l-20.628-28.381-20.642 28.381h9.615a5.151 5.151 0 0 1 5.149 5.15zm-42.94 74.007h97.613a4.006 4.006 0 0 0 4.002-4.002V171.93a4.006 4.006 0 0 0-4.002-4.002h-97.613c-2.17 0-4.002 1.832-4.002 4.002v11.388c0 2.17 1.832 4.002 4.002 4.002zm0 29.676h97.613a4.006 4.006 0 0 0 4.002-4.002v-11.366a4.006 4.006 0 0 0-4.002-4.002h-97.613a4.006 4.006 0 0 0-4.002 4.002v11.366a4.007 4.007 0 0 0 4.002 4.002zM389.3 231.304a4.008 4.008 0 0 0-4.002-4.009h-66.017c.375 1.273.581 2.619.581 4.009v11.38c0 1.39-.206 2.737-.581 4.009h66.017a4.012 4.012 0 0 0 4.002-4.009zm0 41.057v-11.366a4.006 4.006 0 0 0-4.002-4.002h-66.017c.375 1.273.581 2.612.581 4.002v11.366c0 1.39-.206 2.729-.581 4.002h66.017a4.006 4.006 0 0 0 4.002-4.002zm-151.279 4.002h67.54a4.006 4.006 0 0 0 4.002-4.002v-11.366a4.006 4.006 0 0 0-4.002-4.002h-67.54c.368 1.273.574 2.612.574 4.002v11.366c0 1.39-.206 2.729-.574 4.002zm-30.074-29.669h97.613a4.012 4.012 0 0 0 4.002-4.009v-11.38a4.008 4.008 0 0 0-4.002-4.009h-97.613c-2.17 0-4.009 1.839-4.009 4.009v11.38c0 2.17 1.839 4.009 4.009 4.009zm-56.181-47.736v47.736h11.741v-47.736a5.147 5.147 0 0 1 5.15-5.15h9.615l-20.628-28.367-20.635 28.367h9.608a5.146 5.146 0 0 1 5.149 5.15zm-25.064 77.405h97.591a4.006 4.006 0 0 0 4.002-4.002v-11.366a4.006 4.006 0 0 0-4.002-4.002h-97.591a4.006 4.006 0 0 0-4.002 4.002v11.366a4.006 4.006 0 0 0 4.002 4.002zm53.842 10.306h-75.176c1.177 34.693 14.139 66.444 34.995 91.382 14.353-6.871 31.375-12.329 50.002-16.162-6.047-22.694-9.438-48.398-9.821-75.22zm21.011 107.177c-3.097-6.871-5.87-14.25-8.32-22.047-16.92 3.428-32.435 8.239-45.676 14.264 20.642 21.4 47.538 36.731 77.721 42.999-8.843-8.218-16.884-20.069-23.725-35.216zm-1.045-33.855c17.582-2.972 36.348-4.554 55.483-4.554s37.908 1.582 55.49 4.554c5.944-21.996 9.284-47.074 9.674-73.322H190.843c.39 26.248 3.723 51.326 9.667 73.322zm108.037 9.939c-16.648-2.737-34.414-4.186-52.555-4.186s-35.907 1.449-52.547 4.186c2.229 6.952 4.73 13.529 7.504 19.671 12.219 27.087 28.639 42.616 45.044 42.616s32.825-15.53 45.051-42.616c2.773-6.142 5.274-12.726 7.503-19.671zm1.884 23.916c-6.842 15.147-14.882 26.998-23.725 35.216 30.184-6.268 57.086-21.599 77.736-42.999-13.249-6.025-28.756-10.836-45.684-14.264-2.449 7.797-5.23 15.176-8.327 22.047zm21.025-107.177c-.383 26.814-3.781 52.518-9.828 75.22 18.634 3.825 35.657 9.291 50.009 16.162 20.856-24.939 33.818-56.689 34.995-91.382z" opacity="1" data-original="#ffffff" class=""></path></g></svg>